<?xml version="1.0" standalone="no"?>
<!DOCTYPE svg PUBLIC "-//W3C//DTD SVG 20010904//EN"
 "http://www.w3.org/TR/2001/REC-SVG-20010904/DTD/svg10.dtd">
<svg version="1.0" xmlns="http://www.w3.org/2000/svg"
 width="512.000000pt" height="512.000000pt" viewBox="0 0 512.000000 512.000000"
 preserveAspectRatio="xMidYMid meet">
<metadata>
Created by potrace 1.11, written by Peter Selinger 2001-2013
</metadata>
<g transform="translate(0.000000,512.000000) scale(0.100000,-0.100000)"
fill="#000000" stroke="none">
<path d="M2550 5112 c0 -4 -18 -27 -40 -51 -22 -24 -57 -64 -78 -89 -20 -26
-40 -49 -43 -52 -8 -6 -174 -208 -318 -386 -58 -71 -174 -221 -258 -334 -85
-113 -166 -221 -181 -240 -80 -101 -363 -526 -489 -735 -60 -99 -223 -390
-223 -398 0 -2 -29 -65 -64 -138 -101 -212 -168 -408 -201 -589 -13 -71 -15
-365 -2 -415 2 -11 7 -41 11 -66 33 -227 128 -483 257 -696 148 -244 398 -494
642 -642 304 -185 643 -279 1002 -279 169 0 256 10 455 54 104 22 311 91 400
133 143 66 423 271 519 380 31 35 61 69 66 75 28 29 135 176 135 185 0 5 3 11
8 13 18 8 148 248 185 343 8 22 24 63 36 91 22 55 69 227 77 284 3 19 7 41 9
47 25 74 26 416 1 533 -46 225 -123 424 -281 735 -239 467 -672 1107 -1124
1660 -9 11 -38 49 -66 84 -46 57 -206 251 -230 277 -5 6 -46 54 -90 106 -76
91 -115 128 -115 110z"/>
</g>
</svg>
